<svg width="48" height="38" viewBox="0 0 48 38" fill="none" xmlns="http://www.w3.org/2000/svg">
<path d="M34.4359 6.70093H13.1666C8.6917 6.70093 5.06409 10.3934 5.06409 14.9483V23.1958C5.06409 27.7507 8.6917 31.4432 13.1666 31.4432H34.4359C38.9108 31.4432 42.5384 27.7507 42.5384 23.1958V14.9483C42.5384 10.3934 38.9108 6.70093 34.4359 6.70093Z" fill="#D33737"/>
<path d="M16.2052 31.7011C16.2052 30.7047 15.4116 29.897 14.4327 29.897C13.4538 29.897 12.6603 30.7047 12.6603 31.7011V35.3093C12.6603 36.3057 13.4538 37.1135 14.4327 37.1135C15.4116 37.1135 16.2052 36.3057 16.2052 35.3093V31.7011Z" fill="#D33737"/>
<path d="M47.2542 10.0676C47.7437 9.20469 47.4532 8.10128 46.6055 7.60309C45.7577 7.10489 44.6737 7.40056 44.1843 8.26345L39.3734 16.7451C38.8839 17.608 39.1744 18.7114 40.0221 19.2096C40.8699 19.7078 41.9539 19.4122 42.4433 18.5493L47.2542 10.0676Z" fill="#D33737"/>
<path d="M15.1923 3.09294C15.1923 2.52357 14.7389 2.06201 14.1795 2.06201C13.6201 2.06201 13.1667 2.52357 13.1667 3.09294V6.70119C13.1667 7.27057 13.6201 7.73212 14.1795 7.73212C14.7389 7.73212 15.1923 7.27057 15.1923 6.70119V3.09294Z" fill="#D33737"/>
<path d="M8.76705 20.3767C9.2565 19.5138 8.96602 18.4104 8.11829 17.9122C7.27056 17.414 6.18654 17.7096 5.69709 18.5725L0.886195 27.0542C0.396751 27.9171 0.687206 29.0205 1.53495 29.5187C2.38269 30.0169 3.4667 29.7212 3.95614 28.8583L8.76705 20.3767Z" fill="#D33737"/>
<path d="M32.4103 29.897H31.9039C31.0648 29.897 30.3846 30.5893 30.3846 31.4434V35.5671C30.3846 36.4211 31.0648 37.1135 31.9039 37.1135H32.4103C33.2493 37.1135 33.9295 36.4211 33.9295 35.5671V31.4434C33.9295 30.5893 33.2493 29.897 32.4103 29.897Z" fill="#D33737"/>
<path d="M33.423 10.8247H14.1795C11.3827 10.8247 9.11536 13.1325 9.11536 15.9793V22.6804C9.11536 25.5272 11.3827 27.835 14.1795 27.835H33.423C36.2199 27.835 38.4872 25.5272 38.4872 22.6804V15.9793C38.4872 13.1325 36.2199 10.8247 33.423 10.8247Z" fill="#671A1A"/>
<path d="M27.8526 19.0723C28.1322 19.0723 28.3619 19.3038 28.3309 19.5867C28.2168 20.6278 27.7588 21.6048 27.0241 22.3527C26.1693 23.2227 25.01 23.7114 23.8013 23.7114C22.5925 23.7114 21.4332 23.2227 20.5785 22.3527C19.8437 21.6048 19.3858 20.6278 19.2717 19.5867C19.2406 19.3038 19.4703 19.0723 19.75 19.0723H20.5602C20.8399 19.0723 21.0619 19.305 21.1134 19.5848C21.2142 20.1324 21.4751 20.641 21.8676 21.0405C22.3804 21.5625 23.076 21.8558 23.8013 21.8558C24.5266 21.8558 25.2221 21.5625 25.7349 21.0405C26.1275 20.641 26.3883 20.1324 26.4891 19.5848C26.5406 19.305 26.7626 19.0723 27.0423 19.0723H27.8526Z" fill="#EFD4D4"/>
<path d="M33.4231 21.6494C35.1012 21.6494 36.4616 20.2647 36.4616 18.5567C36.4616 16.8486 35.1012 15.4639 33.4231 15.4639C31.745 15.4639 30.3846 16.8486 30.3846 18.5567C30.3846 20.2647 31.745 21.6494 33.4231 21.6494Z" fill="#EFD4D4"/>
<path d="M14.1795 21.6494C15.8576 21.6494 17.218 20.2647 17.218 18.5567C17.218 16.8486 15.8576 15.4639 14.1795 15.4639C12.5014 15.4639 11.1411 16.8486 11.1411 18.5567C11.1411 20.2647 12.5014 21.6494 14.1795 21.6494Z" fill="#EFD4D4"/>
<path d="M14.1795 4.12371C15.2982 4.12371 16.2051 3.20059 16.2051 2.06186C16.2051 0.923124 15.2982 0 14.1795 0C13.0608 0 12.1539 0.923124 12.1539 2.06186C12.1539 3.20059 13.0608 4.12371 14.1795 4.12371Z" fill="#671A1A"/>
</svg>
