<svg width="60" height="60" viewBox="0 0 60 60" fill="none" xmlns="http://www.w3.org/2000/svg">
<circle cx="30" cy="30" r="30" fill="#FEF5F5"/>
<path d="M8 31V41C8 41.5304 8.21071 42.0391 8.58579 42.4142C8.96086 42.7893 9.46957 43 10 43H12C12 44.5913 12.6321 46.1174 13.7574 47.2426C14.8826 48.3679 16.4087 49 18 49C19.5913 49 21.1174 48.3679 22.2426 47.2426C23.3679 46.1174 24 44.5913 24 43H36C36 44.5913 36.6321 46.1174 37.7574 47.2426C38.8826 48.3679 40.4087 49 42 49C43.5913 49 45.1174 48.3679 46.2426 47.2426C47.3679 46.1174 48 44.5913 48 43H50C50.5304 43 51.0392 42.7893 51.4142 42.4142C51.7893 42.0391 52 41.5304 52 41V17C52 15.4087 51.3679 13.8826 50.2427 12.7574C49.1174 11.6321 47.5913 11 46 11H28C26.4087 11 24.8826 11.6321 23.7574 12.7574C22.6321 13.8826 22 15.4087 22 17V21H18C17.0685 21 16.1499 21.2169 15.3167 21.6334C14.4836 22.05 13.7589 22.6548 13.2 23.4L8.4 29.8C8.3415 29.8869 8.29445 29.981 8.26 30.08L8.14 30.3C8.05173 30.523 8.00431 30.7602 8 31ZM40 43C40 42.6044 40.1173 42.2178 40.3371 41.8889C40.5568 41.56 40.8692 41.3036 41.2346 41.1522C41.6001 41.0009 42.0022 40.9613 42.3902 41.0384C42.7782 41.1156 43.1345 41.3061 43.4142 41.5858C43.6939 41.8655 43.8844 42.2218 43.9616 42.6098C44.0387 42.9978 43.9991 43.3999 43.8478 43.7654C43.6964 44.1308 43.44 44.4432 43.1111 44.6629C42.7822 44.8827 42.3956 45 42 45C41.4696 45 40.9609 44.7893 40.5858 44.4142C40.2107 44.0391 40 43.5304 40 43ZM26 17C26 16.4696 26.2107 15.9609 26.5858 15.5858C26.9609 15.2107 27.4696 15 28 15H46C46.5304 15 47.0392 15.2107 47.4142 15.5858C47.7893 15.9609 48 16.4696 48 17V39H46.44C45.8776 38.3813 45.1922 37.8869 44.4276 37.5487C43.663 37.2104 42.8361 37.0356 42 37.0356C41.1639 37.0356 40.337 37.2104 39.5724 37.5487C38.8078 37.8869 38.1224 38.3813 37.56 39H26V17ZM22 29H14L16.4 25.8C16.5863 25.5516 16.8279 25.35 17.1056 25.2111C17.3833 25.0723 17.6895 25 18 25H22V29ZM16 43C16 42.6044 16.1173 42.2178 16.3371 41.8889C16.5568 41.56 16.8692 41.3036 17.2346 41.1522C17.6001 41.0009 18.0022 40.9613 18.3902 41.0384C18.7781 41.1156 19.1345 41.3061 19.4142 41.5858C19.6939 41.8655 19.8844 42.2218 19.9616 42.6098C20.0387 42.9978 19.9991 43.3999 19.8478 43.7654C19.6964 44.1308 19.44 44.4432 19.1111 44.6629C18.7822 44.8827 18.3956 45 18 45C17.4696 45 16.9609 44.7893 16.5858 44.4142C16.2107 44.0391 16 43.5304 16 43ZM12 33H22V38.56C20.8197 37.5051 19.2703 36.9594 17.6894 37.0418C16.1085 37.1243 14.6242 37.8281 13.56 39H12V33Z" fill="#F54748"/>
</svg>
