<svg width="60" height="60" viewBox="0 0 60 60" fill="none" xmlns="http://www.w3.org/2000/svg">
<circle cx="30" cy="30" r="30" fill="#FEF5F5"/>
<path d="M20 36H26C26.5304 36 27.0391 35.7893 27.4142 35.4142C27.7893 35.0391 28 34.5304 28 34C28 33.4696 27.7893 32.9609 27.4142 32.5858C27.0391 32.2107 26.5304 32 26 32H20C19.4696 32 18.9609 32.2107 18.5858 32.5858C18.2107 32.9609 18 33.4696 18 34C18 34.5304 18.2107 35.0391 18.5858 35.4142C18.9609 35.7893 19.4696 36 20 36ZM44 16H16C14.4087 16 12.8826 16.6321 11.7574 17.7574C10.6321 18.8826 10 20.4087 10 22V40C10 41.5913 10.6321 43.1174 11.7574 44.2426C12.8826 45.3679 14.4087 46 16 46H44C45.5913 46 47.1174 45.3679 48.2426 44.2426C49.3679 43.1174 50 41.5913 50 40V22C50 20.4087 49.3679 18.8826 48.2426 17.7574C47.1174 16.6321 45.5913 16 44 16ZM46 40C46 40.5304 45.7893 41.0391 45.4142 41.4142C45.0392 41.7893 44.5304 42 44 42H16C15.4696 42 14.9609 41.7893 14.5858 41.4142C14.2107 41.0391 14 40.5304 14 40V28H46V40ZM46 24H14V22C14 21.4696 14.2107 20.9609 14.5858 20.5858C14.9609 20.2107 15.4696 20 16 20H44C44.5304 20 45.0392 20.2107 45.4142 20.5858C45.7893 20.9609 46 21.4696 46 22V24Z" fill="#F54748"/>
</svg>
