<svg width="60" height="61" viewBox="0 0 60 61" fill="none" xmlns="http://www.w3.org/2000/svg">
<ellipse cx="30" cy="30.2672" rx="30" ry="30.2586" fill="#FEF5F5"/>
<path d="M30 10.0948C25.7565 10.0948 21.6869 11.7951 18.6863 14.8215C15.6857 17.848 14 21.9527 14 26.2328C14 37.1259 28.1 49.431 28.7 49.9555C29.0623 50.2681 29.5233 50.4398 30 50.4398C30.4767 50.4398 30.9377 50.2681 31.3 49.9555C32 49.431 46 37.1259 46 26.2328C46 21.9527 44.3143 17.848 41.3137 14.8215C38.3131 11.7951 34.2435 10.0948 30 10.0948ZM30 45.6992C25.74 41.6647 18 32.9704 18 26.2328C18 23.0227 19.2643 19.9442 21.5147 17.6743C23.7652 15.4045 26.8174 14.1293 30 14.1293C33.1826 14.1293 36.2349 15.4045 38.4853 17.6743C40.7357 19.9442 42 23.0227 42 26.2328C42 32.9704 34.26 41.6848 30 45.6992ZM30 18.1638C28.4178 18.1638 26.871 18.637 25.5554 19.5237C24.2398 20.4103 23.2145 21.6705 22.609 23.1449C22.0035 24.6193 21.845 26.2417 22.1537 27.807C22.4624 29.3722 23.2243 30.8099 24.3431 31.9384C25.462 33.0669 26.8874 33.8354 28.4393 34.1467C29.9911 34.458 31.5997 34.2982 33.0615 33.6875C34.5233 33.0768 35.7727 32.0426 36.6518 30.7157C37.5308 29.3887 38 27.8287 38 26.2328C38 24.0928 37.1572 22.0404 35.6569 20.5272C34.1566 19.0139 32.1217 18.1638 30 18.1638ZM30 30.2673C29.2089 30.2673 28.4355 30.0306 27.7777 29.5873C27.1199 29.144 26.6072 28.5139 26.3045 27.7767C26.0017 27.0395 25.9225 26.2283 26.0769 25.4457C26.2312 24.6631 26.6122 23.9442 27.1716 23.38C27.731 22.8157 28.4437 22.4315 29.2196 22.2758C29.9956 22.1201 30.7998 22.2 31.5307 22.5054C32.2616 22.8108 32.8864 23.3279 33.3259 23.9913C33.7654 24.6548 34 25.4348 34 26.2328C34 27.3028 33.5786 28.329 32.8284 29.0856C32.0783 29.8422 31.0609 30.2673 30 30.2673Z" fill="#F54748"/>
</svg>
