<svg width="355" height="73" viewBox="0 0 355 73" fill="none" xmlns="http://www.w3.org/2000/svg">
<path fill-rule="evenodd" clip-rule="evenodd" d="M130.5 73C110.342 73 94 56.6584 94 36.5C94 16.3416 110.342 0 130.5 0C150.658 0 167 16.3416 167 36.5C167 56.6584 150.658 73 130.5 73ZM132.078 27.3918C128.809 28.7515 122.276 31.5658 112.478 35.8345C110.887 36.4672 110.053 37.0862 109.978 37.6914C109.849 38.7143 111.13 39.117 112.874 39.6655C113.112 39.7401 113.358 39.8174 113.61 39.8993C115.326 40.4571 117.634 41.1097 118.834 41.1357C119.923 41.1592 121.138 40.7104 122.479 39.7893C131.633 33.6098 136.359 30.4864 136.656 30.419C136.865 30.3715 137.155 30.3118 137.351 30.4865C137.548 30.6612 137.529 30.9919 137.508 31.0807C137.381 31.6216 132.353 36.296 129.751 38.715C128.94 39.4692 128.365 40.0041 128.247 40.1263C127.983 40.3999 127.715 40.6588 127.457 40.9076C125.863 42.4445 124.667 43.597 127.523 45.479C128.896 46.3834 129.994 47.1314 131.089 47.8775C132.286 48.6924 133.479 49.5051 135.024 50.5173C135.417 50.7752 135.793 51.0431 136.159 51.3039C137.551 52.2967 138.802 53.1886 140.348 53.0463C141.246 52.9637 142.174 52.1192 142.645 49.6006C143.758 43.6483 145.947 30.7515 146.453 25.437C146.497 24.9714 146.441 24.3755 146.396 24.1139C146.352 23.8523 146.258 23.4796 145.918 23.2037C145.515 22.877 144.894 22.8081 144.616 22.8127C143.351 22.8352 141.412 23.5096 132.078 27.3918Z" fill="#D6D6D6"/>
<path fill-rule="evenodd" clip-rule="evenodd" d="M216.744 49.5031C219.025 50.8719 221.763 51.5562 224.5 51.5562C232.941 51.5562 239.556 44.7125 239.556 36.7281C239.556 32.6219 238.188 28.9719 235.222 26.0063C232.256 23.2687 228.606 21.6719 224.5 21.6719C216.288 21.6719 209.444 28.5156 209.444 36.7281C209.444 39.4656 210.128 42.2031 211.725 44.7125L212.181 45.3969L210.584 50.8719L216.287 49.275L216.744 49.5031ZM229.519 38.7812C229.975 38.7812 232.256 39.9219 232.713 40.15C232.784 40.1855 232.855 40.2155 232.925 40.2451C233.305 40.4058 233.661 40.5557 233.853 41.5187C234.081 41.5187 234.081 42.4312 233.625 43.5719C233.397 44.4844 231.572 45.625 230.659 45.625C230.505 45.625 230.357 45.6381 230.199 45.6521C229.423 45.7207 228.405 45.8107 225.184 44.4844C221.187 42.8852 218.415 39.0092 217.636 37.9207C217.527 37.767 217.456 37.6689 217.428 37.6406C217.389 37.563 217.311 37.439 217.207 37.2755C216.702 36.4786 215.603 34.7428 215.603 32.85C215.603 30.5688 216.744 29.4281 217.2 28.9719C217.656 28.5156 218.112 28.5156 218.341 28.5156H219.253C219.481 28.5156 219.938 28.5156 220.166 29.2C220.622 30.1125 221.534 32.3937 221.534 32.6219C221.534 32.6979 221.56 32.774 221.585 32.85C221.636 33.0021 221.686 33.1542 221.534 33.3062C221.42 33.4203 221.363 33.5344 221.306 33.6484C221.249 33.7625 221.192 33.8766 221.078 33.9906L220.394 34.675C220.166 34.9031 219.938 35.1313 220.166 35.5875C220.394 36.0438 221.306 37.6406 222.675 38.7812C224.215 40.1288 225.43 40.6641 226.046 40.9355C226.16 40.9857 226.254 41.0269 226.325 41.0625C226.781 41.0625 227.009 41.0625 227.238 40.8344C227.352 40.6063 227.637 40.2641 227.922 39.9219C228.207 39.5797 228.492 39.2375 228.606 39.0094C228.834 38.5531 229.063 38.5531 229.519 38.7812Z" fill="#D6D6D6"/>
<path fill-rule="evenodd" clip-rule="evenodd" d="M188 36.5C188 16.3416 204.342 0 224.5 0C244.658 0 261 16.3416 261 36.5C261 56.6584 244.658 73 224.5 73C204.342 73 188 56.6584 188 36.5ZM224.5 18.25C229.291 18.25 233.853 20.075 237.275 23.4969C240.697 26.9188 242.75 31.4813 242.75 36.2719C242.75 46.3094 234.538 54.5219 224.5 54.5219C221.534 54.5219 218.569 53.6094 215.831 52.2406L206.25 54.75L208.759 45.625C207.163 42.8875 206.25 39.6938 206.25 36.5C206.25 26.4625 214.462 18.25 224.5 18.25Z" fill="#D6D6D6"/>
<path fill-rule="evenodd" clip-rule="evenodd" d="M40.4785 42.8875C41.026 43.581 41.683 44.3657 41.683 44.3657C45.7162 44.238 47.2675 41.5917 47.2675 41.5917C47.2675 35.7152 44.6395 30.952 44.6395 30.952C42.0115 28.981 39.5112 29.0357 39.5112 29.0357L39.2557 29.3277C42.3583 30.2767 43.8 31.6455 43.8 31.6455C41.902 30.6053 40.0405 30.0943 38.3068 29.8935C36.9927 29.7475 35.7335 29.784 34.6203 29.93C34.5247 29.93 34.443 29.9439 34.3509 29.9596L34.31 29.9665C33.6712 30.0212 32.12 30.2585 30.1672 31.1163C29.492 31.4265 29.0905 31.6455 29.0905 31.6455C29.0905 31.6455 30.6052 30.2037 33.8903 29.2548L33.7077 29.0357C33.7077 29.0357 31.2075 28.981 28.5795 30.952C28.5795 30.952 25.9515 35.7152 25.9515 41.5917C25.9515 41.5917 27.4845 44.238 31.5177 44.3657C31.5177 44.3657 32.193 43.5445 32.7405 42.851C30.4228 42.1575 29.5467 40.6975 29.5467 40.6975C29.5467 40.6975 29.7292 40.8252 30.0577 41.0078C30.076 41.026 30.0942 41.0443 30.1308 41.0625C30.1581 41.0808 30.1855 41.0944 30.2129 41.1081C30.2403 41.1218 30.2676 41.1355 30.295 41.1537C30.7512 41.4093 31.2075 41.61 31.6273 41.7742C32.3755 42.0662 33.2697 42.3582 34.31 42.559C35.6787 42.8145 37.2847 42.9058 39.0368 42.5772C39.8945 42.4313 40.7705 42.1757 41.683 41.7925C42.3218 41.5552 43.0335 41.2085 43.7817 40.7157C43.7817 40.7157 42.8693 42.2122 40.4785 42.8875ZM31.3353 37.8688C31.3353 36.7555 32.1565 35.843 33.1968 35.843C34.237 35.843 35.0765 36.7555 35.0583 37.8688C35.0583 38.982 34.237 39.8945 33.1968 39.8945C32.1748 39.8945 31.3353 38.982 31.3353 37.8688ZM37.9965 37.8688C37.9965 36.7555 38.8178 35.843 39.858 35.843C40.8983 35.843 41.7195 36.7555 41.7195 37.8688C41.7195 38.982 40.8983 39.8945 39.858 39.8945C38.836 39.8945 37.9965 38.982 37.9965 37.8688Z" fill="#D6D6D6"/>
<path fill-rule="evenodd" clip-rule="evenodd" d="M36.5 0C56.6584 0 73 16.3416 73 36.5C73 56.6584 56.6584 73 36.5 73C16.3416 73 0 56.6584 0 36.5C0 16.3416 16.3416 0 36.5 0ZM20.5312 24.2907C20.5312 22.2103 22.2103 20.5312 24.2725 20.5312H48.7275C50.7897 20.5312 52.4688 22.2103 52.4688 24.2907V57.0312L48.545 53.5637L46.3367 51.5197L44.0008 49.348L44.968 52.7243H24.2725C22.2103 52.7243 20.5312 51.0452 20.5312 48.9648V24.2907Z" fill="#D6D6D6"/>
<path d="M310.136 29.6562H307.474C306.713 29.6562 306.561 30.0143 306.561 30.4089C306.561 31.1139 307.464 34.6102 310.764 39.2344C312.963 42.3923 316.063 44.1042 318.883 44.1042C320.575 44.1042 320.784 43.724 320.784 43.0691V40.6823C320.784 39.9219 320.945 39.7701 321.481 39.7701C321.875 39.7701 322.552 39.9675 324.132 41.4901C324.669 42.0273 325.073 42.4763 325.402 42.842C326.177 43.7048 326.536 44.1042 327.249 44.1042H329.911C330.672 44.1042 331.052 43.724 330.833 42.9737C330.593 42.2259 329.731 41.1408 328.588 39.8547C328.273 39.483 327.879 39.0968 327.53 38.755C327.19 38.4225 326.894 38.132 326.754 37.9373C326.36 37.4298 326.472 37.2042 326.754 36.7531C326.754 36.7531 329.998 32.1853 330.336 30.6346C330.505 30.0706 330.336 29.6562 329.531 29.6562H326.869C326.192 29.6562 325.88 30.0143 325.711 30.4089C325.711 30.4089 324.357 33.7079 322.439 35.8508C321.819 36.4711 321.537 36.6685 321.198 36.6685C321.029 36.6685 320.784 36.4711 320.784 35.9073V30.6346C320.784 29.9578 320.588 29.6562 320.024 29.6562H315.841C315.418 29.6562 315.163 29.9703 315.163 30.268C315.163 30.5129 315.303 30.6859 315.481 30.9066C315.77 31.2639 316.16 31.7464 316.221 32.862V36.7814C316.221 37.6406 316.066 37.7964 315.727 37.7964C314.825 37.7964 312.63 34.4827 311.328 30.691C311.072 29.954 310.816 29.6562 310.136 29.6562Z" fill="#D6D6D6"/>
<path fill-rule="evenodd" clip-rule="evenodd" d="M318.5 0C338.658 0 355 16.3416 355 36.5C355 56.6584 338.658 73 318.5 73C298.342 73 282 56.6584 282 36.5C282 16.3416 298.342 0 318.5 0ZM300.25 35.7396C300.25 27.4949 300.25 23.3726 302.811 20.8113C305.373 18.25 309.495 18.25 317.74 18.25H319.26C327.505 18.25 331.627 18.25 334.189 20.8113C336.75 23.3726 336.75 27.4949 336.75 35.7396V37.2604C336.75 45.5051 336.75 49.6275 334.189 52.1887C331.627 54.75 327.505 54.75 319.26 54.75H317.74C309.495 54.75 305.373 54.75 302.811 52.1887C300.25 49.6275 300.25 45.5051 300.25 37.2604V35.7396Z" fill="#D6D6D6"/>
</svg>
