<svg width="632" height="456" viewBox="0 0 632 456" fill="none" xmlns="http://www.w3.org/2000/svg">
<path d="M333.914 455.801C482.146 455.801 602.312 440.522 602.312 421.676C602.312 402.829 482.146 387.55 333.914 387.55C185.681 387.55 65.5155 402.829 65.5155 421.676C65.5155 440.522 185.681 455.801 333.914 455.801Z" fill="#EFD4D4"/>
<path d="M538.564 42.4151C539.084 43.1823 539.768 43.9024 540.66 44.1502C542.153 44.5575 543.717 43.4243 544.342 42.0078C544.968 40.5914 544.885 38.9801 544.797 37.4338C547.169 39.6648 550.421 41.4649 553.585 40.6799C556.748 39.8949 558.749 35.3799 556.329 33.1903C558.625 33.7864 561.092 34.3825 563.317 33.5503C565.536 32.724 567.118 29.8203 565.731 27.8962C565.035 26.9283 563.837 26.4857 562.709 26.0961C557.616 24.3373 552.522 22.5785 547.429 20.8198C546.113 20.3653 544.75 19.905 543.357 20.0171C532.946 20.8788 534.215 36.035 538.564 42.4151Z" fill="#EC8B8B"/>
<path d="M57.2527 136.923C57.7721 137.691 58.4567 138.411 59.3479 138.658C60.8411 139.066 62.4051 137.933 63.0308 136.516C63.6564 135.1 63.5737 133.488 63.4852 131.942C65.8578 134.173 69.1098 135.973 72.2732 135.188C75.4367 134.403 77.4375 129.888 75.0177 127.699C77.3135 128.295 79.7805 128.891 82.0056 128.059C84.2247 127.232 85.8065 124.329 84.4195 122.404C83.7231 121.437 82.525 120.994 81.3977 120.604C76.3043 118.846 71.2109 117.087 66.1175 115.328C64.8013 114.874 63.438 114.413 62.0451 114.525C51.6341 115.387 52.903 130.537 57.2527 136.923Z" fill="#FEF6F6"/>
<path d="M190.507 67.6047C188.43 68.2539 180.09 42.9935 171.91 53.8413C164.61 63.5264 184.027 69.635 190.507 67.6047Z" fill="#EC8B8B"/>
<path d="M13.7493 193.128C19.3444 194.137 25.1047 193.547 30.6821 192.455C24.9631 190.555 19.8283 187.261 14.369 184.706C11.1524 183.201 -0.232461 178.06 0.00361795 185.29C0.145265 189.498 10.6921 192.579 13.7493 193.128Z" fill="#FEF6F6"/>
<path d="M493.184 36.0645C501.063 39.0922 510.182 38.7381 517.807 35.1084C514.555 36.6606 501.648 31.1659 498.165 30.1567C493.296 28.7461 486.007 24.4967 481.179 26.7866C482.903 31.101 488.775 34.3707 493.184 36.0645Z" fill="#FEF6F6"/>
<path d="M548.385 124.299C550.805 128.554 553.219 132.81 555.639 137.065C556.831 139.16 558.053 141.303 559.859 142.902C561.665 144.501 564.185 145.499 566.516 144.879C567.454 144.631 568.411 144.012 568.57 143.055C568.688 142.353 568.346 141.663 568.003 141.043C564.061 133.907 558.354 127.752 551.531 123.29" fill="#EC8B8B"/>
<path d="M584.511 95.7571C585.361 95.881 586.211 95.58 587.008 95.2613C592.479 93.0835 597.614 90.0676 602.182 86.3493C598.404 86.3021 578.291 82.7668 576.16 84.8975C572.701 88.3501 580.486 95.1551 584.511 95.7571Z" fill="#FEF6F6"/>
<path d="M120.693 59.5721C121.201 59.3655 121.732 59.1176 122.009 58.6455C122.906 57.1051 120.398 55.8893 118.615 55.8657C114.826 55.8066 95.6155 53.859 98.714 60.54C101.695 66.9673 116.219 61.4253 120.693 59.5721Z" fill="#EC8B8B"/>
<path d="M386.718 324.27C391.204 318.686 398.865 315.375 405.345 311.22C411.82 307.065 417.598 301.01 416.128 294.175C413.696 282.838 393.529 277.03 391.405 265.669C388.979 252.679 411.147 246.918 416.299 234.902C419.238 228.044 416.051 220.023 410.816 213.56C405.581 207.098 398.434 201.715 392.266 195.766C384.794 188.56 378.574 180.114 377.464 171.119C376.355 162.125 381.413 152.628 391.593 149.282C397.33 147.399 403.94 147.588 410.143 146.738C416.346 145.888 422.821 143.457 424.515 138.688C425.353 136.321 424.881 133.736 424.662 131.222C422.856 110.305 441.937 90.7168 467.552 87.2051C466.041 92.1333 474.333 96.6601 480.595 95.5682C486.857 94.4823 490.947 90.103 494.459 85.9657C497.971 81.8284 501.854 77.3843 508.01 76.0327C512.95 74.9467 518.397 76.0917 523.52 77.2839C527.486 78.2046 532.084 79.627 533.359 82.7491C533.89 84.0476 533.713 85.4168 533.489 86.7271C531.452 98.5605 525.893 109.633 523.131 121.33C520.369 133.028 520.782 146.184 529.587 156.571C534.882 162.815 542.95 167.743 546.503 174.643C552.139 185.585 544.573 197.011 536.823 206.277C529.074 215.543 520.552 226.161 524.358 237.487C528.183 248.878 585.509 241.931 571.58 312.088C568.204 329.086 543.935 310.972 546.644 328.212C547.789 335.495 531.246 328.956 529.646 336.02C529.139 338.263 540.04 349.276 539.16 351.425C536.109 358.885 526.725 358.985 534.002 365.005C537.803 368.151 542.932 370.818 544.289 374.95C546.727 382.369 535.401 387.061 525.94 387.356C518.043 387.598 516.361 364.928 509.798 368.658C502.09 373.043 493.904 390.254 456.096 385.449C440.468 383.46 434.253 344.071 422.538 350.74C395.748 365.979 363.477 353.207 386.718 324.27Z" fill="#D33737"/>
<path fill-rule="evenodd" clip-rule="evenodd" d="M515.387 377.641C517.795 383.23 520.522 389.557 525.816 389.557C525.881 389.557 525.952 389.557 525.999 389.563C533.016 389.345 541.686 386.848 545.251 381.761C546.851 379.471 547.24 376.874 546.379 374.253C545.145 370.506 541.704 367.991 538.381 365.566C537.36 364.822 536.339 364.072 535.401 363.299C533.808 361.98 533.546 361.333 533.502 361.226C533.498 361.215 533.496 361.21 533.495 361.21C533.598 360.829 534.68 359.928 535.423 359.309L535.472 359.268C537.301 357.751 539.798 355.674 541.197 352.257C542.1 350.061 540.27 347.559 536.044 342.094C534.563 340.181 532.373 337.348 531.889 336.215C532.533 334.781 535.312 334.557 539.107 334.415C542.678 334.285 546.054 334.155 547.854 331.966C548.474 331.216 549.141 329.894 548.822 327.87C548.574 326.282 548.456 324.193 549.3 323.243C550.391 322.017 553.575 322.143 556.674 322.267L556.731 322.269C562.68 322.511 571.686 322.877 573.74 312.519C584.322 259.26 554.867 248.731 537.267 242.439L537.266 242.439L537.224 242.424C532.028 240.564 527.124 238.809 526.448 236.785C523.196 227.111 529.989 217.892 538.511 207.7C546.432 198.233 554.718 185.798 548.456 173.639C546.095 169.054 541.993 165.359 538.027 161.788C535.661 159.658 533.217 157.45 531.264 155.149C522.304 144.59 523.06 131.21 525.273 121.85C526.469 116.784 528.246 111.707 529.967 106.794L529.977 106.764L529.989 106.729C532.205 100.407 534.494 93.8735 535.655 87.1166C535.926 85.5703 536.145 83.7643 535.395 81.9229C533.742 77.8918 528.714 76.2334 524.004 75.1415C518.321 73.8195 512.785 72.7335 507.526 73.8844C500.497 75.4248 496.206 80.4828 492.759 84.5492C489.401 88.5095 485.665 92.452 480.206 93.4022C476.836 93.9806 472.474 92.5759 470.438 90.2623C469.688 89.4125 469.423 88.6039 469.653 87.8602L470.668 84.5492L467.239 85.0214C440.651 88.6688 420.554 109.479 422.449 131.417L422.573 132.686L422.577 132.726C422.77 134.641 422.953 136.45 422.419 137.95C421.274 141.161 416.571 143.628 409.831 144.549C407.919 144.807 405.911 144.969 403.96 145.127L403.669 145.151L403.595 145.157C399.339 145.497 394.94 145.849 390.891 147.181C380.356 150.645 373.929 160.596 375.257 171.391C376.284 179.713 381.483 188.448 390.72 197.359C392.823 199.387 395.052 201.364 397.21 203.278L397.33 203.385L397.34 203.394C401.474 207.056 405.755 210.849 409.087 214.959C411.713 218.193 417.474 226.539 414.257 234.034C412.298 238.607 407.242 242.425 402.351 246.118L402.347 246.122L402.338 246.129C395.081 251.609 387.581 257.274 389.221 266.082C390.448 272.633 396.527 277.284 402.412 281.781C407.576 285.73 412.917 289.814 413.956 294.648C415.343 301.093 408.402 306.634 404.141 309.367C402.429 310.465 400.582 311.533 398.788 312.566L398.775 312.573C393.733 315.487 388.516 318.501 384.989 322.889C371.922 339.166 377.216 348.798 380.102 352.18C388.223 361.712 407.352 361.924 423.641 352.652C424.698 352.056 425.4 352.145 425.89 352.286C429.118 353.213 432.671 359.829 436.1 366.227L436.11 366.245C441.213 375.749 446.989 386.507 455.836 387.633C486.945 391.587 499.045 380.75 506.276 374.275L506.281 374.271L506.33 374.227C508.062 372.676 509.557 371.336 510.908 370.571C511.008 370.512 511.185 370.429 511.268 370.452C512.449 370.844 514.187 374.865 515.356 377.568L515.387 377.641ZM512.672 366.256C512.283 366.126 511.799 366.02 511.232 366.02C510.5 366.02 509.645 366.197 508.718 366.705C506.942 367.714 505.265 369.213 503.324 370.954C496.224 377.311 485.488 386.919 456.385 383.218C449.8 382.38 444.589 372.674 439.992 364.112L439.99 364.108C435.77 356.246 432.122 349.453 427.106 348.007C425.223 347.464 423.311 347.718 421.452 348.78C405.463 357.875 389.292 356.122 383.461 349.282C378.804 343.823 380.569 335.418 388.43 325.633C391.423 321.907 396.031 319.242 400.91 316.422L400.995 316.373C402.831 315.316 404.725 314.219 406.525 313.068C415.544 307.284 419.716 300.402 418.276 293.697C416.897 287.277 410.906 282.694 405.111 278.261L405.091 278.246L405.091 278.246C399.632 274.073 394.474 270.131 393.565 265.25C392.426 259.136 398.255 254.734 405.006 249.636L405.009 249.633C410.362 245.596 415.898 241.418 418.323 235.764C421.257 228.923 419.144 220.318 412.522 212.156C408.957 207.759 404.542 203.846 400.263 200.057L399.934 199.765C397.877 197.938 395.761 196.06 393.795 194.161C385.308 185.975 380.551 178.125 379.654 170.836C378.586 162.172 383.779 154.163 392.284 151.371C395.834 150.204 399.781 149.888 403.956 149.553L404.029 149.548C406.13 149.382 408.308 149.205 410.438 148.916C418.973 147.748 424.863 144.283 426.592 139.414C427.455 136.977 427.203 134.47 426.979 132.253L426.976 132.219L426.858 131.021C425.223 112.082 442.291 94.0278 465.315 89.7902C465.586 90.9647 466.194 92.1097 467.127 93.1661C470.172 96.6129 476.116 98.5782 480.973 97.7342C487.89 96.5302 492.429 91.7614 496.141 87.3822C499.31 83.6403 502.911 79.3968 508.482 78.1751C512.826 77.219 517.837 78.2164 523.013 79.4204C525.008 79.8808 530.302 81.1084 531.305 83.5636C531.618 84.3191 531.482 85.3047 531.305 86.3316C530.201 92.7353 527.97 99.1094 525.81 105.271L525.767 105.396C524.021 110.385 522.217 115.543 520.976 120.799C517.471 135.648 519.861 148.503 527.899 157.976C530.016 160.47 532.534 162.741 534.972 164.941L535.082 165.04L535.1 165.056C538.93 168.509 542.545 171.769 544.537 175.634C549.577 185.426 542.613 195.89 535.129 204.837L535.121 204.847C527.88 213.511 517.968 225.369 522.269 238.172C523.638 242.238 528.732 244.062 535.79 246.582L535.8 246.585C553.105 252.777 579.251 262.131 569.42 311.639C568.169 317.96 563.854 318.114 556.931 317.831C552.788 317.659 548.503 317.488 546.019 320.28C544.39 322.109 543.888 324.807 544.472 328.537C544.525 328.891 544.496 329.091 544.46 329.133C543.918 329.787 540.818 329.906 538.965 329.977L538.96 329.977C534.616 330.136 528.667 330.36 527.498 335.513C527.061 337.449 528.454 339.479 532.562 344.785C534.026 346.679 536.404 349.76 536.929 351.006C535.921 353.145 534.214 354.569 532.693 355.837L532.662 355.863C530.904 357.321 529.086 358.832 529.092 361.175C529.092 363.494 530.969 365.341 532.597 366.693C533.585 367.512 534.659 368.297 535.74 369.088L535.79 369.125C538.682 371.232 541.403 373.221 542.194 375.623C542.625 376.921 542.448 378.066 541.645 379.211C539.432 382.374 532.656 384.918 525.881 385.131C523.449 385.172 521.277 380.132 519.498 376.004L519.448 375.888L519.444 375.878C517.456 371.267 515.739 367.282 512.672 366.256Z" fill="#671A1A"/>
<path d="M460.251 394.698C460.228 394.698 460.198 394.698 460.168 394.698C458.947 394.656 457.997 393.63 458.038 392.408L465.97 164.987C466.011 163.765 467.038 162.839 468.26 162.857C469.482 162.898 470.432 163.925 470.391 165.147L462.458 392.567C462.423 393.759 461.437 394.698 460.251 394.698Z" fill="white"/>
<path d="M460.239 279.155C459.537 279.155 458.852 278.824 458.421 278.205C457.725 277.201 457.973 275.82 458.976 275.124C464.607 271.217 492.983 251.693 498.956 251.321C500.16 251.244 501.223 252.171 501.299 253.387C501.376 254.609 500.449 255.653 499.228 255.73C496.07 255.931 477.562 267.593 461.496 278.754C461.113 279.025 460.67 279.155 460.239 279.155Z" fill="white"/>
<path d="M461.88 237.097C461.195 237.097 460.529 236.785 460.092 236.194C420.36 181.938 421.806 178.45 422.349 177.139C422.691 176.319 423.417 175.746 424.296 175.611C425.518 175.422 426.634 176.248 426.816 177.458C426.881 177.871 426.822 178.278 426.675 178.644C428.416 183.909 446.694 210.421 463.657 233.586C464.377 234.571 464.164 235.952 463.179 236.678C462.789 236.962 462.335 237.097 461.88 237.097Z" fill="white"/>
<path d="M465.858 196.681C465.256 196.681 464.654 196.433 464.217 195.949C463.403 195.04 463.474 193.641 464.377 192.827C465.498 191.818 491.768 168.151 494.542 166.109C495.527 165.383 496.908 165.595 497.634 166.581C498.36 167.566 498.148 168.947 497.162 169.673C495.002 171.261 474.9 189.297 467.339 196.114C466.92 196.492 466.389 196.681 465.858 196.681Z" fill="white"/>
<path d="M501.134 256.757C502.468 253.269 504.067 249.61 508.057 247.668C513.115 245.224 520.41 246.234 526.17 248.63C531.925 251.026 536.806 254.691 542.389 257.601C543.888 258.38 545.641 259.135 547.293 258.84C548.964 258.545 549.991 257.27 550.77 256.055C559.469 241.996 556.63 224.869 559.764 209.594C560.555 205.422 562.007 200.936 565.619 197.956C575.109 189.663 577.039 195.565 586.117 186.169C592.455 179.606 596.292 165.701 605.593 162.432C624.828 155.674 616.889 193.405 616.4 202.323C615.479 219.238 638.479 222.95 630.198 242.032C626.604 250.318 619.48 256.243 614.169 263.261C608.91 270.32 605.687 280.229 612.008 287.695C616.122 292.558 624.261 296.471 623.801 302.279C623.517 305.696 620.029 307.785 616.754 309.391C608.579 313.439 600.11 317.069 591.375 320.28C589.168 321.094 586.819 321.956 585.757 323.685C584.299 326.046 585.703 329.251 586.618 332.19C589.994 343.032 585.591 353.36 577.063 359.971C568.582 366.61 556.43 370.004 544.059 372.506C528.141 375.752 511.592 377.795 494.536 378.562C444.894 378.721 468.661 345.452 473.318 332.668C482.26 306.989 491.537 281.681 501.134 256.757Z" fill="#EC8B8B"/>
<path d="M509.621 368.204C509.22 368.204 508.813 368.092 508.447 367.861C507.414 367.212 507.101 365.843 507.756 364.81L591.192 232.27C591.847 231.237 593.211 230.924 594.244 231.579C595.276 232.228 595.589 233.598 594.934 234.63L511.498 367.171C511.079 367.838 510.359 368.204 509.621 368.204Z" fill="white"/>
<path d="M557.073 292.765C556.14 292.765 555.279 292.175 554.972 291.236L548.698 272.013C548.32 270.851 548.952 269.605 550.115 269.228C551.283 268.85 552.523 269.482 552.9 270.644L559.174 289.867C559.552 291.03 558.92 292.275 557.758 292.653C557.527 292.729 557.297 292.765 557.073 292.765Z" fill="white"/>
<path d="M569.083 274.103C568.086 274.103 567.177 273.424 566.935 272.409C566.652 271.223 567.384 270.025 568.57 269.741L588.229 265.014C589.433 264.725 590.614 265.456 590.897 266.649C591.18 267.835 590.448 269.033 589.262 269.316L569.603 274.044C569.432 274.085 569.255 274.103 569.083 274.103Z" fill="white"/>
<path d="M395.105 366.97C393.996 363.884 393.441 360.342 394.887 357.397C397.69 351.684 406.095 351.625 411.743 354.541C417.391 357.456 421.959 362.396 427.973 364.474C433.987 366.551 442.533 363.659 442.681 357.303C442.752 354.092 440.662 351.301 438.91 348.609C433.881 340.884 430.971 331.789 430.594 322.582C430.446 319.076 431.632 314.49 435.138 314.289C437.192 314.171 438.91 315.753 440.35 317.223C446.299 323.29 452.248 329.357 458.197 335.43C459.484 318.185 461.685 299.05 474.788 287.766C477.231 285.665 481.061 283.965 483.452 286.131C484.508 287.093 484.921 288.563 485.193 289.967C487.329 301.004 483.711 312.702 486.763 323.52C487.217 325.125 487.861 326.76 489.147 327.823C495.085 332.745 502.775 320.404 510.241 322.351C515.098 323.62 516.296 330.337 514.337 334.958C512.377 339.579 508.458 343.097 506.115 347.535C503.778 351.973 503.725 358.525 508.11 360.962C510.158 362.101 512.637 362.03 514.98 361.924C522.257 361.6 529.534 361.275 536.811 360.95C532.922 366.628 529.039 372.312 525.149 377.989C524.128 379.482 523.054 381.229 523.52 382.982C524.494 386.665 530.296 385.827 533.064 388.448C536.156 391.375 533.5 397.017 529.528 398.564C525.556 400.11 521.124 399.13 516.869 398.929C492.989 397.79 476.045 413.584 452 404.212C432.423 396.575 403.091 389.215 395.105 366.97Z" fill="#671A1A"/>
<path d="M468.567 409.388C468.526 409.388 468.484 409.388 468.437 409.382C467.215 409.311 466.289 408.266 466.354 407.051C469.883 344.98 472.22 343.858 473.619 343.185C474.723 342.654 476.045 343.12 476.57 344.224C476.971 345.056 476.8 346.018 476.216 346.668C474.699 350.492 472.291 380.527 470.768 407.304C470.709 408.479 469.736 409.388 468.567 409.388Z" fill="white"/>
<path d="M468.726 389.799C467.723 389.799 466.82 389.114 466.578 388.093C466.295 386.907 467.033 385.715 468.219 385.432L493.485 379.459C494.677 379.176 495.864 379.913 496.147 381.1C496.43 382.286 495.692 383.478 494.506 383.761L469.24 389.734C469.069 389.776 468.898 389.799 468.726 389.799Z" fill="white"/>
<path d="M467.847 403.179C467.457 403.179 467.062 403.073 466.702 402.86L434.501 383.366C433.456 382.734 433.12 381.371 433.751 380.326C434.389 379.282 435.752 378.951 436.785 379.583L468.986 399.077C470.031 399.709 470.367 401.072 469.736 402.117C469.322 402.801 468.591 403.179 467.847 403.179Z" fill="white"/>
<path d="M469.523 379.3C468.833 379.3 468.154 378.981 467.723 378.373L455.677 361.546C454.969 360.555 455.193 359.174 456.191 358.46C457.182 357.746 458.569 357.976 459.277 358.967L471.323 375.794C472.031 376.785 471.807 378.166 470.81 378.88C470.42 379.164 469.966 379.3 469.523 379.3Z" fill="white"/>
<path d="M579.164 409.405C581.961 404.129 584.045 399.006 588.035 394.432C589.38 392.892 591.027 391.345 593.075 391.292C593.459 391.281 593.889 391.345 594.155 391.641C594.391 391.9 594.444 392.272 594.474 392.62C596.356 414.853 567.378 413.56 561.588 394.839C561.228 393.683 560.962 392.425 561.316 391.286C561.96 389.203 564.557 388.33 566.622 389.002C568.688 389.669 570.252 391.469 571.409 393.364C574.478 398.369 575.434 404.347 576.319 410.137C574.885 402.559 575.8 394.597 578.898 387.71C579.365 386.677 580.262 385.497 581.33 385.874C581.843 386.057 582.18 386.559 582.445 387.049C584.37 390.549 584.511 394.798 583.644 398.628C582.776 402.459 580.976 405.971 579.164 409.405Z" fill="#671A1A"/>
<path d="M154.936 347.588C144.448 344.584 134.055 341.474 126.542 333.648C122.658 329.599 120.274 322.21 124.848 318.964C127.15 317.329 130.231 317.588 133.052 317.382C143.894 316.603 137.862 306.859 132.414 303.129C122.8 296.548 111.12 291.283 106.322 280.66C106.021 279.993 105.743 279.261 105.891 278.541C106.109 277.467 107.166 276.8 108.157 276.34C114.939 273.241 126.489 277.331 131.281 270.638C142.979 254.284 106.664 226.633 98.5961 216.134C97.0556 214.127 95.4444 211.955 95.2968 209.429C95.0077 204.53 100.432 201.03 105.342 200.877C112.861 200.647 119.902 204.943 127.498 203.722C133.483 202.76 137.431 197.088 138.8 191.54C142.914 174.832 134.97 156.719 135.832 139.774C136.54 125.904 146.136 99.4753 164.828 105.938C173.386 108.895 175.965 119.4 178.639 128.053C181.111 136.073 184.664 145.092 189.817 151.743C193.594 156.618 199.118 160.502 205.274 160.844C217.237 161.511 232.925 151.95 233.108 171.279C233.167 177.198 231.066 182.917 230.387 188.802C229.708 194.68 230.906 201.467 235.811 204.784C244.752 210.834 271.494 198.369 270.231 217.467C269.913 222.248 267.339 226.539 265.097 230.771C254.261 251.239 274.9 250.294 280.088 265.846C281.953 271.441 280.754 277.691 278.128 282.968C273.914 291.437 266.619 298.23 261.302 306.015C250.507 321.82 243.277 339.809 237.322 357.905C232.954 371.172 229.254 397.023 210.704 397.277C199.26 397.436 195.583 380.067 191.729 372.235C184.216 356.972 170.394 352.009 154.936 347.588Z" fill="#EFD4D4"/>
<path d="M180.403 197.194L221.941 402.116L180.403 197.194Z" fill="#D33737"/>
<rect x="178.256" y="197.634" width="4.42665" height="209.103" transform="rotate(-11.4605 178.256 197.634)" fill="#671A1A"/>
<path d="M194.261 259.791L211.932 220.537L194.261 259.791Z" fill="#D33737"/>
<rect x="192.221" y="258.889" width="43.0407" height="4.42623" transform="rotate(-65.7623 192.221 258.889)" fill="#671A1A"/>
<path d="M210.096 333.931L227.767 294.683L210.096 333.931Z" fill="#D33737"/>
<rect x="208.043" y="333.032" width="43.0407" height="4.42623" transform="rotate(-65.7623 208.043 333.032)" fill="#671A1A"/>
<path d="M198.77 299.723L160.579 281.693L198.77 299.723Z" fill="#D33737"/>
<rect x="159.654" y="283.677" width="4.42077" height="42.2363" transform="rotate(-64.7239 159.654 283.677)" fill="#671A1A"/>
<path d="M200.187 386.093C202.778 382.044 205.009 377.352 205.581 372.105C205.717 370.836 205.735 369.437 205.156 368.41C204.654 367.519 203.81 367.1 202.99 366.87C197.171 365.229 191.711 370.854 187.515 376.419C180.096 386.252 173.474 397.129 167.797 408.809C171.19 401.821 172.985 388.418 172.176 380.203C172.146 379.878 172.093 379.53 171.904 379.323C171.71 379.117 171.432 379.128 171.184 379.187C169.396 379.642 168.269 381.938 167.407 384.062C164.751 390.643 162.444 398.245 160.903 405.628C161.871 400.989 159.009 395.406 156.412 392.644C151.767 387.704 152.758 394.597 153.768 398.646C154.753 402.618 161.322 418.152 166.002 414.682C166.858 414.044 167.071 410.574 167.773 409.459C169.001 407.523 170.706 406.885 172.465 406.165C177.187 404.229 182.103 403.433 186.541 400.387C191.729 396.834 196.415 391.989 200.187 386.093Z" fill="#671A1A"/>
<path d="M257.955 374.295C258.156 374.265 258.368 374.289 258.593 374.365C259.295 374.613 259.655 375.369 259.926 376.065C262.376 382.422 262.081 380.816 262.765 389.557C263.379 383.933 262.948 384.971 264.919 379.665C265.303 378.633 265.74 377.57 266.578 376.85C272.002 372.211 268.779 389.439 268.059 391.475C265.398 399.012 258.333 401.898 250.814 400.476C244.215 399.23 237.481 395.317 234.235 389.321C233.94 388.778 233.68 388.082 234.04 387.58C234.288 387.232 234.743 387.12 235.162 387.049C238.927 386.441 242.769 387.792 246.033 389.764C249.303 391.735 252.154 394.308 255.287 396.492C257.507 398.038 261.727 397.253 264.43 397.153C269.021 396.982 270.52 394.946 274.068 392.024C274.841 391.387 275.696 390.779 276.688 390.631C277.68 390.484 278.825 390.938 279.167 391.883C279.368 392.443 279.261 393.069 279.096 393.641C276.971 400.918 268.101 401.402 263.391 396.616C258.899 392.048 255.169 383.85 255.943 377.393C256.096 376.083 256.846 374.448 257.955 374.295Z" fill="#EC8B8B"/>
<path d="M44.5459 337.171C45.8561 336.422 47.2785 335.873 48.7658 335.601C54.9688 334.468 61.0478 338.121 65.7044 342.377C70.3552 346.638 74.4216 351.737 80.0344 354.623C82.6431 355.963 86.8335 356.105 87.5122 353.254C87.8309 351.926 87.1345 350.592 86.4381 349.418C79.4383 337.655 69.4286 328.489 60.4635 318.297C58.0673 315.57 55.5176 311.864 57.1702 308.629C58.9408 305.159 64.1876 305.413 67.4573 307.537C70.727 309.656 73.1055 313.02 76.5759 314.797C77.4789 315.257 78.4881 315.611 79.4973 315.487C81.4096 315.251 82.7611 313.333 83.0031 311.421C84.4786 299.658 70.2726 290.38 65.852 280.743C62.0747 272.521 62.8125 262.983 64.2408 254.048C65.3562 247.072 67.0796 239.712 72.1435 234.784C73.2885 233.674 74.7049 232.665 76.2985 232.671C82.3716 232.683 82.5073 246.777 85.8774 250.701C88.9346 254.272 93.3434 256.798 95.3205 261.059C97.8171 266.442 95.6805 272.745 96.0819 278.665C96.7311 288.132 105.183 290.445 107.656 297.587C108.14 292.245 108.57 286.822 109.019 281.445C109.161 279.733 109.409 277.815 110.76 276.753C113.705 274.433 117.606 278.636 118.12 282.348C118.799 287.235 117.465 292.157 117.152 297.085C116.839 302.013 117.89 307.585 121.944 310.394C126.412 313.493 132.444 312.011 137.75 310.807C143.056 309.603 149.589 309.202 152.936 313.493C154.252 315.175 154.812 317.329 155.054 319.454C157.138 337.419 139.119 353.791 142.932 371.468C146.349 387.32 155.727 397.059 138.724 408.691C131.753 413.46 124.293 415.449 116.007 412.894C109.668 410.934 104.091 407.133 98.5017 403.568C86.9515 396.209 73.6072 392.425 61.278 386.535C52.667 382.422 44.3924 376.803 39.4938 368.611C34.5952 360.425 33.8102 349.258 39.5528 341.639C40.9044 339.845 42.6041 338.287 44.5459 337.171Z" fill="#D33737"/>
<path fill-rule="evenodd" clip-rule="evenodd" d="M115.358 415.001C118.019 415.821 120.646 416.234 123.26 416.234C128.867 416.234 134.392 414.334 139.951 410.527C154.446 400.606 151.413 391.416 147.895 380.769L147.893 380.762C146.878 377.689 145.829 374.51 145.074 371.013C143.252 362.549 146.899 354.286 150.762 345.534L150.769 345.517C154.476 337.124 158.3 328.454 157.232 319.206C156.89 316.231 156.046 313.917 154.659 312.141C151.377 307.951 145.523 306.782 137.236 308.665L136.829 308.759C131.865 309.892 126.737 311.061 123.184 308.594C119.229 305.849 119.176 299.741 119.336 297.239C119.436 295.657 119.642 294.081 119.867 292.417C120.315 289.064 120.776 285.6 120.286 282.059C119.831 278.748 117.412 275.413 114.667 274.309C112.784 273.554 110.913 273.814 109.367 275.029C107.166 276.765 106.924 279.698 106.794 281.274L106.434 285.653C106.36 286.524 106.288 287.397 106.215 288.269C106.143 289.141 106.071 290.012 105.997 290.882C105.33 290.144 104.646 289.436 103.961 288.734C101.075 285.771 98.5902 283.21 98.2656 278.529C98.1375 276.62 98.2964 274.648 98.465 272.557L98.4721 272.468L98.4754 272.429C98.8108 268.345 99.1567 264.133 97.3035 260.145C95.8576 257.028 93.4082 254.827 91.0357 252.696L91.0176 252.68C89.7495 251.541 88.552 250.466 87.5358 249.279C86.5797 248.158 85.7593 245.189 85.0452 242.569L85.0441 242.565C83.4863 236.9 81.7212 230.481 76.2807 230.47H76.2689C74.339 230.47 72.4799 231.361 70.5794 233.208C65.0965 238.543 63.2315 246.216 62.0334 253.711C60.6228 262.541 59.7316 272.769 63.8217 281.675C65.5417 285.421 68.4669 288.915 71.5588 292.607L71.5769 292.629L71.5818 292.635C76.5143 298.523 81.6099 304.606 80.7898 311.155C80.6541 312.235 79.934 313.215 79.214 313.304C78.8009 313.351 78.2638 313.192 77.5674 312.837C75.9092 311.988 74.4694 310.648 72.9471 309.232L72.9461 309.231L72.9206 309.208C71.6065 307.987 70.2503 306.728 68.6495 305.69C66.0054 303.973 62.4937 303.341 59.7198 304.085C57.6659 304.634 56.1019 305.861 55.193 307.632C52.5969 312.712 57.256 318.016 58.7919 319.765L58.7932 319.766C61.1315 322.422 63.5675 325.039 65.9294 327.577L66.2297 327.899L66.2441 327.915C73.0791 335.245 79.5362 342.17 84.5258 350.557C84.815 351.041 85.4878 352.174 85.3521 352.747C85.3166 352.888 85.2694 353.012 84.9979 353.136C84.1126 353.543 82.3361 353.331 81.0377 352.664C77.3075 350.746 74.2825 347.726 71.0823 344.532L71.0221 344.472L71.0219 344.472C69.759 343.209 68.496 341.946 67.1858 340.748C60.7762 334.881 54.2664 332.349 48.3585 333.429C46.6646 333.736 45.0121 334.35 43.4363 335.253C41.3056 336.475 39.3462 338.222 37.7763 340.305C31.9333 348.06 31.8507 360.165 37.5874 369.744C42.0552 377.204 49.4917 383.348 60.3218 388.524C64.8707 390.7 69.603 392.606 74.1854 394.452L74.3862 394.532C82.165 397.661 90.2035 400.895 97.3153 405.428L98.9207 406.454L98.9384 406.466C104.056 409.75 109.345 413.144 115.358 415.001ZM49.1671 337.779C49.8104 337.661 50.4478 337.608 51.0852 337.608C56.0901 337.608 60.9002 340.984 64.2348 344.018C65.4919 345.174 66.7077 346.39 67.9235 347.606L67.9236 347.606C71.2405 350.923 74.6695 354.352 79.0429 356.601C81.1676 357.692 84.4137 358.288 86.8748 357.155C88.3267 356.488 89.3241 355.284 89.6841 353.773C90.2365 351.458 89.0219 349.412 88.3647 348.305L88.3562 348.291C83.1211 339.491 76.1922 332.06 69.4935 324.877C67.056 322.263 64.5417 319.56 62.1455 316.839C59.348 313.658 58.3447 311.232 59.1591 309.639C59.4896 308.995 60.0503 308.576 60.8884 308.352C62.4642 307.927 64.6716 308.358 66.271 309.391C67.5547 310.221 68.7209 311.304 69.9571 312.452L69.9656 312.46C71.6418 314.024 73.377 315.635 75.5843 316.762C77.1011 317.535 78.4822 317.836 79.7806 317.677C82.9027 317.299 84.874 314.378 85.2104 311.692C86.2726 303.23 80.2837 296.083 75.0019 289.781L75 289.778C72.0903 286.308 69.3459 283.032 67.8704 279.816C64.2702 271.99 65.126 262.57 66.4304 254.396C67.5104 247.65 69.1394 240.798 73.6957 236.366C74.7108 235.38 75.5902 234.878 76.3043 234.878H76.3102C78.3877 234.884 79.7924 239.995 80.8134 243.725C81.7342 247.089 82.6077 250.271 84.213 252.142C85.4229 253.552 86.7921 254.786 88.1142 255.972C90.2448 257.884 92.2633 259.696 93.3256 261.992C94.689 264.931 94.4057 268.407 94.0988 272.09C93.9158 274.28 93.7329 276.552 93.8863 278.818C94.3168 285.116 97.7697 288.663 100.819 291.795L100.827 291.803L100.836 291.813C102.822 293.857 104.694 295.785 105.572 298.313L108.936 308.021L109.869 297.787C110.218 293.943 110.538 290.059 110.858 286.179L110.872 286.007L111.232 281.634C111.303 280.725 111.445 279.037 112.135 278.494C112.342 278.335 112.566 278.205 113.044 278.399C114.319 278.913 115.7 280.943 115.936 282.655C116.34 285.579 115.942 288.578 115.52 291.752L115.511 291.821C115.287 293.485 115.057 295.208 114.945 296.943C114.508 303.807 116.597 309.373 120.687 312.212C125.843 315.786 132.489 314.273 137.829 313.058L137.838 313.056L138.246 312.961C142.696 311.952 148.55 311.456 151.2 314.85C152.068 315.971 152.617 317.553 152.865 319.701C153.797 327.752 150.374 335.507 146.75 343.717L146.739 343.743C142.764 352.753 138.655 362.069 140.783 371.928C141.58 375.63 142.708 379.047 143.706 382.07L143.728 382.138L143.732 382.15C147.165 392.542 149.237 398.814 137.49 406.856C130.484 411.648 123.679 412.929 116.674 410.769C111.233 409.087 106.193 405.853 101.318 402.725L101.317 402.724L99.6998 401.692C92.2524 396.949 84.0346 393.641 76.0856 390.441L76.0447 390.425C71.4647 388.583 66.7254 386.677 62.234 384.529C52.2184 379.742 45.3957 374.159 41.3942 367.466C36.5664 359.392 36.531 349.312 41.3234 342.961C42.5333 341.356 44.0324 340.016 45.6495 339.089C46.7827 338.44 47.969 337.998 49.1671 337.779Z" fill="#671A1A"/>
<path d="M127.923 415.732C126.991 415.732 126.123 415.136 125.822 414.204L81.2798 276.759C80.902 275.596 81.5394 274.351 82.7021 273.973C83.8707 273.601 85.116 274.233 85.4879 275.395L130.03 412.84C130.408 414.003 129.77 415.248 128.608 415.626C128.377 415.697 128.147 415.732 127.923 415.732Z" fill="#671A1A"/>
<path d="M119.041 388.312C118.834 388.312 118.622 388.282 118.415 388.223L64.89 372.394C63.7155 372.046 63.0486 370.818 63.3968 369.644C63.745 368.475 64.9667 367.802 66.1412 368.151L119.666 383.98C120.841 384.328 121.508 385.556 121.159 386.73C120.876 387.692 119.997 388.312 119.041 388.312Z" fill="#671A1A"/>
<path d="M102.314 336.711C102.019 336.711 101.718 336.652 101.423 336.522L80.961 327.51C79.8455 327.02 79.338 325.71 79.8278 324.594C80.3177 323.479 81.6161 322.965 82.7434 323.461L103.206 332.473C104.321 332.963 104.829 334.273 104.339 335.389C103.979 336.221 103.164 336.711 102.314 336.711Z" fill="#671A1A"/>
<path fill-rule="evenodd" clip-rule="evenodd" d="M211.708 122.183C211.708 54.7054 266.407 0 333.89 0C401.367 0 456.073 54.6995 456.073 122.183C456.073 189.666 370.931 343.884 333.89 343.884C300.166 343.884 211.708 189.66 211.708 122.183ZM250.708 124.738C250.708 170.679 287.949 207.921 333.89 207.921C379.831 207.921 417.073 170.679 417.073 124.738C417.073 78.7972 379.831 41.5558 333.89 41.5558C287.949 41.5558 250.708 78.7972 250.708 124.738Z" fill="#671A1A"/>
<path d="M333.89 420.356C382.187 420.356 421.34 415.063 421.34 408.534C421.34 402.006 382.187 396.713 333.89 396.713C285.593 396.713 246.441 402.006 246.441 408.534C246.441 415.063 285.593 420.356 333.89 420.356Z" fill="#671A1A"/>
</svg>
