<svg width="60" height="60" viewBox="0 0 60 60" fill="none" xmlns="http://www.w3.org/2000/svg">
<circle cx="30" cy="30" r="30" fill="#FEF5F5"/>
<path d="M20 20C19.6044 20 19.2178 20.1173 18.8889 20.3371C18.56 20.5568 18.3036 20.8692 18.1522 21.2346C18.0009 21.6001 17.9613 22.0022 18.0384 22.3902C18.1156 22.7781 18.3061 23.1345 18.5858 23.4142C18.8655 23.6939 19.2219 23.8844 19.6098 23.9616C19.9978 24.0387 20.3999 23.9991 20.7654 23.8478C21.1308 23.6964 21.4432 23.44 21.6629 23.1111C21.8827 22.7822 22 22.3956 22 22C22 21.4696 21.7893 20.9609 21.4142 20.5858C21.0391 20.2107 20.5304 20 20 20ZM20 28C19.6044 28 19.2178 28.1173 18.8889 28.3371C18.56 28.5568 18.3036 28.8692 18.1522 29.2346C18.0009 29.6001 17.9613 30.0022 18.0384 30.3902C18.1156 30.7781 18.3061 31.1345 18.5858 31.4142C18.8655 31.6939 19.2219 31.8844 19.6098 31.9616C19.9978 32.0387 20.3999 31.9991 20.7654 31.8478C21.1308 31.6964 21.4432 31.44 21.6629 31.1111C21.8827 30.7822 22 30.3956 22 30C22 29.4696 21.7893 28.9609 21.4142 28.5858C21.0391 28.2107 20.5304 28 20 28ZM40 28H28C27.4696 28 26.9609 28.2107 26.5858 28.5858C26.2107 28.9609 26 29.4696 26 30C26 30.5304 26.2107 31.0391 26.5858 31.4142C26.9609 31.7893 27.4696 32 28 32H40C40.5304 32 41.0392 31.7893 41.4142 31.4142C41.7893 31.0391 42 30.5304 42 30C42 29.4696 41.7893 28.9609 41.4142 28.5858C41.0392 28.2107 40.5304 28 40 28ZM40 20H28C27.4696 20 26.9609 20.2107 26.5858 20.5858C26.2107 20.9609 26 21.4696 26 22C26 22.5304 26.2107 23.0391 26.5858 23.4142C26.9609 23.7893 27.4696 24 28 24H40C40.5304 24 41.0392 23.7893 41.4142 23.4142C41.7893 23.0391 42 22.5304 42 22C42 21.4696 41.7893 20.9609 41.4142 20.5858C41.0392 20.2107 40.5304 20 40 20ZM44 10H16C14.4087 10 12.8826 10.6321 11.7574 11.7574C10.6321 12.8826 10 14.4087 10 16V36C10 37.5913 10.6321 39.1174 11.7574 40.2426C12.8826 41.3679 14.4087 42 16 42H39.18L46.58 49.42C46.7669 49.6054 46.9885 49.752 47.2322 49.8515C47.4759 49.9511 47.7368 50.0015 48 50C48.2624 50.0068 48.5226 49.952 48.76 49.84C49.1252 49.69 49.4379 49.4352 49.6586 49.1077C49.8792 48.7803 49.998 48.3948 50 48V16C50 14.4087 49.3679 12.8826 48.2426 11.7574C47.1174 10.6321 45.5913 10 44 10ZM46 43.18L41.42 38.58C41.2331 38.3946 41.0115 38.248 40.7678 38.1485C40.5241 38.0489 40.2632 37.9985 40 38H16C15.4696 38 14.9609 37.7893 14.5858 37.4142C14.2107 37.0391 14 36.5304 14 36V16C14 15.4696 14.2107 14.9609 14.5858 14.5858C14.9609 14.2107 15.4696 14 16 14H44C44.5304 14 45.0392 14.2107 45.4142 14.5858C45.7893 14.9609 46 15.4696 46 16V43.18Z" fill="#F54748"/>
</svg>
