<svg width="456" height="40" viewBox="0 0 456 40" fill="none" xmlns="http://www.w3.org/2000/svg">
<path d="M228 23.5C226.125 23.5 224.5 22 224.5 20C224.5 18.125 226 16.5 228 16.5C229.875 16.5 231.5 18 231.5 20C231.5 21.875 229.875 23.5 228 23.5Z" fill="black"/>
<path fill-rule="evenodd" clip-rule="evenodd" d="M232.25 11.5H223.75C222.75 11.625 222.25 11.75 221.875 11.875C221.375 12 221 12.25 220.625 12.625C220.328 12.9217 220.188 13.2185 220.019 13.5771C219.974 13.6717 219.927 13.7707 219.875 13.875C219.856 13.933 219.833 13.994 219.809 14.0594C219.679 14.4167 219.5 14.9047 219.5 15.75V24.25C219.625 25.25 219.75 25.75 219.875 26.125C220 26.625 220.25 27 220.625 27.375C220.922 27.6717 221.218 27.8119 221.577 27.9814C221.672 28.0261 221.771 28.0728 221.875 28.125C221.933 28.1443 221.994 28.1667 222.059 28.1906C222.417 28.3214 222.905 28.5 223.75 28.5H232.25C233.25 28.375 233.75 28.25 234.125 28.125C234.625 28 235 27.75 235.375 27.375C235.672 27.0783 235.812 26.7815 235.981 26.4229C236.026 26.3283 236.073 26.2293 236.125 26.125C236.144 26.067 236.167 26.006 236.191 25.9406C236.321 25.5833 236.5 25.0953 236.5 24.25V15.75C236.375 14.75 236.25 14.25 236.125 13.875C236 13.375 235.75 13 235.375 12.625C235.078 12.3283 234.782 12.1881 234.423 12.0186C234.328 11.974 234.229 11.9271 234.125 11.875C234.067 11.8557 234.006 11.8333 233.941 11.8094C233.583 11.6786 233.095 11.5 232.25 11.5ZM228 14.625C225 14.625 222.625 17 222.625 20C222.625 23 225 25.375 228 25.375C231 25.375 233.375 23 233.375 20C233.375 17 231 14.625 228 14.625ZM234.75 14.5C234.75 15.1904 234.19 15.75 233.5 15.75C232.81 15.75 232.25 15.1904 232.25 14.5C232.25 13.8096 232.81 13.25 233.5 13.25C234.19 13.25 234.75 13.8096 234.75 14.5Z" fill="black"/>
<path fill-rule="evenodd" clip-rule="evenodd" d="M208 20C208 8.95431 216.954 0 228 0C239.046 0 248 8.95431 248 20C248 31.0457 239.046 40 228 40C216.954 40 208 31.0457 208 20ZM223.75 9.625H232.25C233.375 9.75 234.125 9.875 234.75 10.125C235.5 10.5 236 10.75 236.625 11.375C237.25 12 237.625 12.625 237.875 13.25C238.125 13.875 238.375 14.625 238.375 15.75V24.25C238.25 25.375 238.125 26.125 237.875 26.75C237.5 27.5 237.25 28 236.625 28.625C236 29.25 235.375 29.625 234.75 29.875C234.125 30.125 233.375 30.375 232.25 30.375H223.75C222.625 30.25 221.875 30.125 221.25 29.875C220.5 29.5 220 29.25 219.375 28.625C218.75 28 218.375 27.375 218.125 26.75C217.875 26.125 217.625 25.375 217.625 24.25V15.75C217.75 14.625 217.875 13.875 218.125 13.25C218.5 12.5 218.75 12 219.375 11.375C220 10.75 220.625 10.375 221.25 10.125C221.875 9.875 222.625 9.625 223.75 9.625Z" fill="black"/>
<path fill-rule="evenodd" clip-rule="evenodd" d="M280 40C268.954 40 260 31.0457 260 20C260 8.95431 268.954 0 280 0C291.046 0 300 8.95431 300 20C300 31.0457 291.046 40 280 40ZM280.865 15.0092C279.074 15.7543 275.494 17.2963 270.125 19.6354C269.253 19.9821 268.796 20.3212 268.755 20.6528C268.685 21.2133 269.386 21.434 270.342 21.7345C270.472 21.7754 270.607 21.8177 270.745 21.8626C271.685 22.1683 272.95 22.5259 273.608 22.5401C274.204 22.553 274.87 22.3071 275.605 21.8024C280.621 18.4163 283.21 16.7049 283.373 16.668C283.488 16.6419 283.647 16.6092 283.754 16.7049C283.862 16.8006 283.851 16.9819 283.84 17.0305C283.77 17.3269 281.015 19.8882 279.59 21.2137C279.145 21.6269 278.83 21.92 278.765 21.987C278.621 22.1369 278.474 22.2788 278.333 22.4151C277.459 23.2572 276.804 23.8887 278.369 24.92C279.121 25.4156 279.723 25.8254 280.323 26.2342C280.979 26.6807 281.633 27.1261 282.479 27.6807C282.694 27.822 282.9 27.9688 283.101 28.1118C283.864 28.6557 284.549 29.1444 285.396 29.0665C285.888 29.0212 286.396 28.5585 286.655 27.1784C287.265 23.9169 288.464 16.8501 288.741 13.9381C288.765 13.6829 288.735 13.3564 288.71 13.2131C288.686 13.0698 288.635 12.8655 288.448 12.7144C288.228 12.5353 287.887 12.4976 287.735 12.5001C287.042 12.5125 285.979 12.882 280.865 15.0092Z" fill="black"/>
<path fill-rule="evenodd" clip-rule="evenodd" d="M327.75 27.125C329 27.875 330.5 28.25 332 28.25C336.625 28.25 340.25 24.5 340.25 20.125C340.25 17.875 339.5 15.875 337.875 14.25C336.25 12.75 334.25 11.875 332 11.875C327.5 11.875 323.75 15.625 323.75 20.125C323.75 21.625 324.125 23.125 325 24.5L325.25 24.875L324.375 27.875L327.5 27L327.75 27.125ZM334.75 21.25C335 21.25 336.25 21.875 336.5 22C336.539 22.0195 336.578 22.0359 336.616 22.0521C336.825 22.1402 337.019 22.2223 337.125 22.75C337.25 22.75 337.25 23.25 337 23.875C336.875 24.375 335.875 25 335.375 25C335.29 25 335.209 25.0072 335.123 25.0148C334.698 25.0524 334.14 25.1018 332.375 24.375C330.184 23.4988 328.666 21.3749 328.239 20.7785C328.179 20.6942 328.14 20.6405 328.125 20.625C328.104 20.5824 328.061 20.5145 328.004 20.4249C327.727 19.9883 327.125 19.0372 327.125 18C327.125 16.75 327.75 16.125 328 15.875C328.25 15.625 328.5 15.625 328.625 15.625H329.125C329.25 15.625 329.5 15.625 329.625 16C329.875 16.5 330.375 17.75 330.375 17.875C330.375 17.9167 330.389 17.9583 330.403 18C330.431 18.0833 330.458 18.1667 330.375 18.25C330.313 18.3125 330.281 18.375 330.25 18.4375C330.219 18.5 330.188 18.5625 330.125 18.625L329.75 19C329.625 19.125 329.5 19.25 329.625 19.5C329.75 19.75 330.25 20.625 331 21.25C331.844 21.9884 332.51 22.2817 332.847 22.4304C332.91 22.4579 332.961 22.4805 333 22.5C333.25 22.5 333.375 22.5 333.5 22.375C333.563 22.25 333.719 22.0625 333.875 21.875C334.031 21.6875 334.187 21.5 334.25 21.375C334.375 21.125 334.5 21.125 334.75 21.25Z" fill="black"/>
<path fill-rule="evenodd" clip-rule="evenodd" d="M312 20C312 8.95431 320.954 0 332 0C343.046 0 352 8.95431 352 20C352 31.0457 343.046 40 332 40C320.954 40 312 31.0457 312 20ZM332 10C334.625 10 337.125 11 339 12.875C340.875 14.75 342 17.25 342 19.875C342 25.375 337.5 29.875 332 29.875C330.375 29.875 328.75 29.375 327.25 28.625L322 30L323.375 25C322.5 23.5 322 21.75 322 20C322 14.5 326.5 10 332 10Z" fill="black"/>
<path fill-rule="evenodd" clip-rule="evenodd" d="M22.18 23.5C22.48 23.88 22.84 24.31 22.84 24.31C25.05 24.24 25.9 22.79 25.9 22.79C25.9 19.57 24.46 16.96 24.46 16.96C23.02 15.88 21.65 15.91 21.65 15.91L21.51 16.07C23.21 16.59 24 17.34 24 17.34C22.96 16.77 21.94 16.49 20.99 16.38C20.27 16.3 19.58 16.32 18.97 16.4C18.9176 16.4 18.8729 16.4076 18.8224 16.4162L18.8 16.42C18.45 16.45 17.6 16.58 16.53 17.05C16.16 17.22 15.94 17.34 15.94 17.34C15.94 17.34 16.77 16.55 18.57 16.03L18.47 15.91C18.47 15.91 17.1 15.88 15.66 16.96C15.66 16.96 14.22 19.57 14.22 22.79C14.22 22.79 15.06 24.24 17.27 24.31C17.27 24.31 17.64 23.86 17.94 23.48C16.67 23.1 16.19 22.3 16.19 22.3C16.19 22.3 16.29 22.37 16.47 22.47C16.48 22.48 16.49 22.49 16.51 22.5C16.525 22.51 16.54 22.5175 16.555 22.525C16.57 22.5325 16.585 22.54 16.6 22.55C16.85 22.69 17.1 22.8 17.33 22.89C17.74 23.05 18.23 23.21 18.8 23.32C19.55 23.46 20.43 23.51 21.39 23.33C21.86 23.25 22.34 23.11 22.84 22.9C23.19 22.77 23.58 22.58 23.99 22.31C23.99 22.31 23.49 23.13 22.18 23.5ZM17.17 20.75C17.17 20.14 17.62 19.64 18.19 19.64C18.76 19.64 19.22 20.14 19.21 20.75C19.21 21.36 18.76 21.86 18.19 21.86C17.63 21.86 17.17 21.36 17.17 20.75ZM20.82 20.75C20.82 20.14 21.27 19.64 21.84 19.64C22.41 19.64 22.86 20.14 22.86 20.75C22.86 21.36 22.41 21.86 21.84 21.86C21.28 21.86 20.82 21.36 20.82 20.75Z" fill="black"/>
<path fill-rule="evenodd" clip-rule="evenodd" d="M20 0C31.0457 0 40 8.95431 40 20C40 31.0457 31.0457 40 20 40C8.95431 40 0 31.0457 0 20C0 8.95431 8.95431 0 20 0ZM11.25 13.31C11.25 12.17 12.17 11.25 13.3 11.25H26.7C27.83 11.25 28.75 12.17 28.75 13.31V31.25L26.6 29.35L25.39 28.23L24.11 27.04L24.64 28.89H13.3C12.17 28.89 11.25 27.97 11.25 26.83V13.31Z" fill="black"/>
<path fill-rule="evenodd" clip-rule="evenodd" d="M52 20C52 8.95431 60.9543 0 72 0C83.0457 0 92 8.95431 92 20C92 31.0457 83.0457 40 72 40C60.9543 40 52 31.0457 52 20ZM72 10C77.5 10 82 14.5 82 20C82 25 78.375 29.25 73.375 30V22.875H75.75L76.25 20H73.5V18.125C73.5 17.375 73.875 16.625 75.125 16.625H76.375V14.125C76.375 14.125 75.25 13.875 74.125 13.875C71.875 13.875 70.375 15.25 70.375 17.75V20H67.875V22.875H70.375V29.875C65.625 29.125 62 25 62 20C62 14.5 66.5 10 72 10Z" fill="black"/>
<path d="M179.25 20L174 17V23L179.25 20Z" fill="black"/>
<path fill-rule="evenodd" clip-rule="evenodd" d="M156 20C156 8.95431 164.954 0 176 0C187.046 0 196 8.95431 196 20C196 31.0457 187.046 40 176 40C164.954 40 156 31.0457 156 20ZM183.75 13.375C184.625 13.625 185.25 14.25 185.5 15.125C186 16.75 186 20 186 20C186 20 186 23.25 185.625 24.875C185.375 25.75 184.75 26.375 183.875 26.625C182.25 27 176 27 176 27C176 27 169.625 27 168.125 26.625C167.25 26.375 166.625 25.75 166.375 24.875C166 23.25 166 20 166 20C166 20 166 16.75 166.25 15.125C166.5 14.25 167.125 13.625 168 13.375C169.625 13 175.875 13 175.875 13C175.875 13 182.25 13 183.75 13.375Z" fill="black"/>
<path fill-rule="evenodd" clip-rule="evenodd" d="M104 20C104 8.95431 112.954 0 124 0C135.046 0 144 8.95431 144 20C144 31.0457 135.046 40 124 40C112.954 40 104 31.0457 104 20ZM131.625 14.375C132.5 14.25 133.25 14.125 134 13.75C133.5 14.625 132.75 15.375 131.875 15.875C132.125 21.75 127.875 28.125 120.25 28.125C118 28.125 115.875 27.375 114 26.25C116.125 26.5 118.375 25.875 119.875 24.75C118 24.75 116.5 23.5 116 21.875C116.625 22 117.25 21.875 117.875 21.75C116 21.25 114.625 19.5 114.625 17.625C115.25 17.875 115.875 18.125 116.5 18.125C114.75 16.875 114.125 14.5 115.25 12.625C117.375 15.125 120.375 16.75 123.75 16.875C123.125 14.375 125.125 11.875 127.75 11.875C128.875 11.875 130 12.375 130.75 13.125C131.75 12.875 132.625 12.625 133.375 12.125C133.125 13.125 132.5 13.875 131.625 14.375Z" fill="black"/>
<path d="M379.417 16.25H377.958C377.542 16.25 377.458 16.4462 377.458 16.6624C377.458 17.0487 377.953 18.9645 379.761 21.4983C380.966 23.2287 382.664 24.1667 384.21 24.1667C385.137 24.1667 385.252 23.9583 385.252 23.5995V22.2917C385.252 21.875 385.34 21.7918 385.633 21.7918C385.85 21.7918 386.22 21.9 387.086 22.7343C387.38 23.0286 387.601 23.2747 387.782 23.4751C388.207 23.9478 388.404 24.1667 388.794 24.1667H390.253C390.67 24.1667 390.878 23.9583 390.758 23.5472C390.626 23.1375 390.154 22.5429 389.528 21.8382C389.355 21.6345 389.139 21.4229 388.948 21.2356C388.762 21.0534 388.599 20.8942 388.523 20.7876C388.307 20.5095 388.368 20.3859 388.523 20.1387C388.523 20.1387 390.3 17.6358 390.486 16.7861C390.578 16.477 390.486 16.25 390.045 16.25H388.586C388.215 16.25 388.044 16.4462 387.951 16.6624C387.951 16.6624 387.209 18.4701 386.159 19.6443C385.819 19.9842 385.664 20.0923 385.479 20.0923C385.386 20.0923 385.252 19.9842 385.252 19.6752V16.7861C385.252 16.4153 385.144 16.25 384.835 16.25H382.543C382.311 16.25 382.172 16.4221 382.172 16.5852C382.172 16.7194 382.248 16.8142 382.346 16.9351C382.504 17.1309 382.718 17.3953 382.751 18.0066V20.1542C382.751 20.625 382.666 20.7104 382.481 20.7104C381.986 20.7104 380.783 18.8946 380.07 16.817C379.93 16.4131 379.79 16.25 379.417 16.25Z" fill="black"/>
<path fill-rule="evenodd" clip-rule="evenodd" d="M384 0C395.046 0 404 8.95431 404 20C404 31.0457 395.046 40 384 40C372.954 40 364 31.0457 364 20C364 8.95431 372.954 0 384 0ZM374 19.5833C374 15.0657 374 12.8069 375.403 11.4034C376.807 10 379.066 10 383.583 10H384.417C388.934 10 391.193 10 392.597 11.4034C394 12.8069 394 15.0657 394 19.5833V20.4167C394 24.9343 394 27.1931 392.597 28.5965C391.193 30 388.934 30 384.417 30H383.583C379.066 30 376.807 30 375.403 28.5965C374 27.1931 374 24.9343 374 20.4167V19.5833Z" fill="black"/>
<path d="M436.039 11.8354C437.417 11.8354 438.541 12.9597 438.541 14.3378C438.541 15.716 437.417 16.8402 436.039 16.8402C434.661 16.8402 433.536 15.716 433.536 14.3378C433.5 12.9597 434.624 11.8354 436.039 11.8354Z" fill="black"/>
<path fill-rule="evenodd" clip-rule="evenodd" d="M436 0C424.954 0 416 8.95431 416 20C416 31.0457 424.954 40 436 40C447.046 40 456 31.0457 456 20C456 8.95431 447.046 0 436 0ZM436.039 20.3943C439.375 20.3943 442.095 17.6743 442.095 14.3378C442.095 11.0013 439.375 8.28125 436.039 8.28125C432.666 8.28125 429.946 11.0013 429.946 14.3378C429.946 17.6743 432.666 20.3943 436.039 20.3943ZM438.469 25.363C439.702 25.0728 440.899 24.6013 441.987 23.9123C442.821 23.4045 443.075 22.2803 442.531 21.4462C442.023 20.612 440.899 20.3582 440.064 20.9022C437.598 22.4617 434.371 22.4617 431.904 20.9022C431.07 20.3945 429.982 20.612 429.438 21.4462C428.967 22.2803 429.221 23.3683 430.055 23.876C431.143 24.5652 432.34 25.0365 433.573 25.3267L430.2 28.6995C429.511 29.3887 429.511 30.5128 430.2 31.202C430.562 31.5647 430.998 31.7097 431.469 31.7097C431.941 31.7097 432.376 31.5283 432.739 31.202L436.075 27.8653L439.412 31.202C440.101 31.891 441.225 31.891 441.914 31.202C442.603 30.5128 442.603 29.3887 441.914 28.6995L438.469 25.363Z" fill="black"/>
</svg>
